# xmcd
#
# Track frame offsets:
#	150
#	16808
#	29563
#	43233
#	58942
#	73282
#	88400
#	103631
#	116294
#	131287
#
# Disc length: 1959 seconds
#
# Revision: 0
# Processed by: cddbd v1.5.1PL0 Copyright (c) Steve Scherf et al.
# Submitted via: audiograbber 1.83.01
#
DISCID=8d07a50a
DTITLE=Byrd, Tracy - Big Love - Byrd, Tracy - Big Love
DYEAR=1996
DGENRE=Country
TTITLE0=Big Love
TTITLE1=Cowgirl
TTITLE2=Good Ol' Fashioned Love
TTITLE3=Don't Take Her She's All I Got
TTITLE4=If I Stay
TTITLE5=Don't Love Make A Diamond Shine
TTITLE6=Tucson Too Soon
TTITLE7=I Don't Believe Thats How You Feel
TTITLE8=Driving Me Out Of Your Mind 
TTITLE9=I Love You,Thats All
EXTD=YEAR: 1996 ID3G:   2
EXTT0=
EXTT1=
EXTT2=
EXTT3=
EXTT4=
EXTT5=
EXTT6=
EXTT7=
EXTT8=
EXTT9=
PLAYORDER=
